<svg width="24" height="17" viewBox="0 0 24 17" fill="none" xmlns="http://www.w3.org/2000/svg">
<path fill-rule="evenodd" clip-rule="evenodd" d="M18 11V10C18 5.02944 13.9706 1 9 1C4.02944 1 0 5.02944 0 10V11C0 12.1046 0.895431 13 2 13H16C17.1046 13 18 12.1046 18 11ZM12.5547 5.16806C13.0142 5.47441 13.1384 6.09528 12.8321 6.55481L11.2501 8.92775C11.7158 9.4361 12 10.1135 12 10.8572C12 10.9361 11.936 11.0001 11.8571 11.0001H6.14286C6.06396 11.0001 6 10.9361 6 10.8572C6 9.27929 7.27919 8.00011 8.85714 8.00011H9.14286C9.24788 8.00011 9.35159 8.00577 9.45368 8.01682L11.1679 5.44541C11.4743 4.98588 12.0952 4.8617 12.5547 5.16806Z" fill="#273B4A"/>
</svg>