<svg width="18" height="19" viewBox="0 0 18 19" fill="none" xmlns="http://www.w3.org/2000/svg">
<path d="M9.00021 13.4512C8.524 13.4519 8.05232 13.3587 7.61214 13.177C7.17195 12.9953 6.77188 12.7287 6.43477 12.3923C6.09767 12.0559 5.83015 11.6564 5.64748 11.2167C5.46482 10.7769 5.3706 10.3054 5.37021 9.8292C5.37047 8.86636 5.75294 7.94301 6.43358 7.26199C7.11422 6.58097 8.03737 6.198 9.00021 6.1972C9.96305 6.198 10.8862 6.58097 11.5668 7.26199C12.2475 7.94301 12.6299 8.86636 12.6302 9.8292C12.6298 10.3054 12.5356 10.7769 12.3529 11.2167C12.1703 11.6564 11.9027 12.0559 11.5656 12.3923C11.2285 12.7287 10.8285 12.9953 10.3883 13.177C9.94809 13.3587 9.47642 13.4519 9.00021 13.4512ZM17.2952 8.5492H17.2892C16.8706 8.54915 16.4614 8.42495 16.1134 8.1923C15.7654 7.95964 15.4943 7.629 15.3342 7.2422L15.3032 7.1672C15.1432 6.7805 15.1014 6.35506 15.1831 5.94462C15.2648 5.53418 15.4663 5.15717 15.7622 4.8612C15.8293 4.79655 15.8827 4.71905 15.9191 4.63331C15.9555 4.54757 15.9743 4.45536 15.9743 4.3622C15.9743 4.26904 15.9555 4.17683 15.9191 4.09109C15.8827 4.00536 15.8293 3.92785 15.7622 3.8632L14.9532 3.0542C14.8204 2.92321 14.6413 2.84977 14.4547 2.84977C14.2681 2.84977 14.0891 2.92321 13.9562 3.0542C13.6617 3.34879 13.2865 3.54945 12.878 3.63079C12.4695 3.71214 12.0461 3.67052 11.6612 3.5112L11.5812 3.4782C11.1959 3.31862 10.8665 3.04838 10.6348 2.70165C10.4031 2.35491 10.2793 1.94725 10.2792 1.5302C10.2793 1.43754 10.2612 1.34575 10.2258 1.2601C10.1905 1.17445 10.1386 1.09662 10.0731 1.03104C10.0076 0.965474 9.92983 0.913454 9.84423 0.877962C9.75863 0.84247 9.66687 0.824201 9.57421 0.824202H8.42621C8.33354 0.824201 8.24179 0.84247 8.15619 0.877962C8.07059 0.913454 7.99282 0.965474 7.92734 1.03104C7.86187 1.09662 7.80996 1.17445 7.77459 1.2601C7.73921 1.34575 7.72108 1.43754 7.72121 1.5302C7.72121 2.3852 7.20721 3.1582 6.41521 3.4802C6.39421 3.4892 6.37221 3.4972 6.35221 3.5072C5.96608 3.66984 5.54022 3.71362 5.12908 3.63292C4.71794 3.55223 4.34021 3.35073 4.04421 3.0542C3.90971 2.92288 3.72919 2.84936 3.54121 2.84936C3.35323 2.84936 3.17271 2.92288 3.03821 3.0542L2.22821 3.8642C2.09673 3.9968 2.02296 4.17597 2.02296 4.3627C2.02296 4.54943 2.09673 4.7286 2.22821 4.8612L2.23521 4.8672C2.53084 5.16314 2.73184 5.54026 2.81267 5.95067C2.89351 6.36109 2.85053 6.78626 2.68921 7.1722C2.67921 7.1942 2.67121 7.2172 2.66121 7.2382C2.50356 7.62598 2.23377 7.95789 1.88638 8.19145C1.53899 8.425 1.12981 8.54957 0.711208 8.5492H0.705208C0.518138 8.54947 0.338821 8.62397 0.206637 8.75634C0.0744524 8.88871 0.000207713 9.06813 0.000207901 9.2552V10.3932C0.000207901 10.7832 0.316208 11.0992 0.705208 11.0992H0.707208C1.12516 11.0982 1.53389 11.222 1.88109 11.4546C2.2283 11.6873 2.49818 12.0183 2.65621 12.4052L2.68521 12.4742C2.84787 12.8606 2.89175 13.2867 2.81125 13.6981C2.73074 14.1095 2.52951 14.4876 2.23321 14.7842L2.22921 14.7872C2.09743 14.9198 2.02347 15.0992 2.02347 15.2862C2.02347 15.4732 2.09743 15.6526 2.22921 15.7852L3.03821 16.5942C3.17271 16.7255 3.35323 16.799 3.54121 16.799C3.72919 16.799 3.90971 16.7255 4.04421 16.5942L4.04921 16.5892C4.34524 16.293 4.72284 16.0919 5.13377 16.0113C5.5447 15.9308 5.9703 15.9747 6.35621 16.1372L6.41521 16.1612C6.80197 16.3197 7.13275 16.5899 7.36536 16.9372C7.59796 17.2845 7.72184 17.6932 7.72121 18.1112V18.1182C7.72121 18.5132 8.04121 18.8242 8.42621 18.8242H9.57421C9.95921 18.8242 10.2792 18.5142 10.2792 18.1182V18.1112C10.2792 17.2562 10.7932 16.4842 11.5852 16.1612L11.6442 16.1372C12.0301 15.9747 12.4557 15.9308 12.8666 16.0113C13.2776 16.0919 13.6552 16.293 13.9512 16.5892L13.9562 16.5942C14.0891 16.7252 14.2681 16.7986 14.4547 16.7986C14.6413 16.7986 14.8204 16.7252 14.9532 16.5942L15.7622 15.7842C15.8291 15.7196 15.8824 15.6421 15.9187 15.5565C15.9551 15.4708 15.9738 15.3787 15.9738 15.2857C15.9738 15.1927 15.9551 15.1006 15.9187 15.0149C15.8824 14.9293 15.8291 14.8518 15.7622 14.7872L15.7582 14.7842C15.4619 14.4876 15.2607 14.1095 15.1802 13.6981C15.0997 13.2867 15.1435 12.8606 15.3062 12.4742L15.3352 12.4052C15.4934 12.0186 15.7632 11.6879 16.1101 11.4553C16.4571 11.2227 16.8655 11.0987 17.2832 11.0992H17.2952C17.4823 11.0989 17.6616 11.0244 17.7938 10.8921C17.926 10.7597 18.0002 10.5803 18.0002 10.3932V9.2552C18.0002 9.06813 17.926 8.88871 17.7938 8.75634C17.6616 8.62397 17.4823 8.54947 17.2952 8.5492Z" fill="#2F3941"/>
</svg>
