<svg width="26" height="27" viewBox="0 0 26 27" fill="none" xmlns="http://www.w3.org/2000/svg">
<rect width="26" height="26" transform="translate(0 0.824219)" fill="white"/>
<path d="M13 19.8242C10.091 19.8612 7.602 21.8592 7.02 24.6242C6.98938 24.7716 6.99321 24.9241 7.0312 25.0698C7.06918 25.2155 7.1403 25.3505 7.239 25.4642C7.439 25.6982 7.739 25.8302 8.052 25.8242H17.948C18.261 25.8302 18.561 25.6982 18.761 25.4642C18.8594 25.3503 18.9302 25.2153 18.968 25.0697C19.0059 24.924 19.0096 24.7716 18.979 24.6242C18.398 21.8592 15.909 19.8612 13 19.8242ZM3.833 1.82422H22.167C23.179 1.82422 24 2.71922 24 3.82422V15.8242C24 16.9292 23.18 17.8242 22.167 17.8242H3.833C2.821 17.8242 2 16.9292 2 15.8242V3.82422C2 2.71922 2.82 1.82422 3.833 1.82422ZM4 3.82422V15.8242H22V3.82422H4Z" fill="#028079"/>
</svg>
